<svg xmlns="http://www.w3.org/2000/svg" viewBox="0 0 44.46 44.46"><defs><style>.cls-1{fill:#4a00ff;}.cls-2{fill:#fff;}</style></defs><g id="Layer_2" data-name="Layer 2"><g id="Layer_1-2" data-name="Layer 1"><path class="cls-1" d="M40.82,36.58a1.73,1.73,0,0,1-.58-2.4,17.75,17.75,0,0,0,2.53-7.11c.88-7.67-1.86-13.79-8.16-18.22A17.86,17.86,0,0,0,22.48,5.72,18.79,18.79,0,0,0,19.36,42.6a18.42,18.42,0,0,0,15-2.38,2,2,0,0,1,1.43-.4,1.78,1.78,0,0,1,1.44,1.35A1.75,1.75,0,0,1,36.49,43a19.6,19.6,0,0,1-2.43,1.4A11.43,11.43,0,0,0,44.45,33.64,23.81,23.81,0,0,1,43.21,36a1.72,1.72,0,0,1-2.39.6M33.06,25.07l-13,9.68a2.28,2.28,0,0,1-1.41.47,2.4,2.4,0,0,1-1-.21,2.36,2.36,0,0,1-1.38-2L15.24,17.79a2.34,2.34,0,0,1,1-2.07,2.37,2.37,0,0,1,2.27-.29l14,5.55a2.37,2.37,0,0,1,.55,4.09"/><path class="cls-1" d="M11.42,44.46h2.95A22.34,22.34,0,0,1,2.44,29.28c-.17-.82-.3-1.65-.45-2.47L1.87,24a2.65,2.65,0,0,0,0-.38,21.57,21.57,0,0,1,.32-3.11A22.32,22.32,0,0,1,19.35,2.7c.82-.17,1.65-.3,2.47-.45l2.78-.12a2,2,0,0,0,.34.05,22.2,22.2,0,0,1,19.52,13V11.42A11.42,11.42,0,0,0,33,0H11.42A11.42,11.42,0,0,0,0,11.42V33A11.42,11.42,0,0,0,11.42,44.46"/><polygon class="cls-1" points="19.75 30.52 29.14 23.51 18.97 19.49 19.75 30.52"/><path class="cls-2" d="M28.39,2.56a22.21,22.21,0,0,0-3.45-.38,2,2,0,0,1-.34-.05l-2.78.12c-.83.15-1.65.28-2.47.45A22.32,22.32,0,0,0,2.24,20.53a21.72,21.72,0,0,0-.32,3.11c0,.13,0,.26,0,.39L2,26.81c.15.82.28,1.65.45,2.47A22.34,22.34,0,0,0,14.37,44.46H33c.35,0,.69,0,1-.05A19.6,19.6,0,0,0,36.49,43a1.75,1.75,0,0,0,.78-1.84,1.78,1.78,0,0,0-1.44-1.35,2,2,0,0,0-1.43.4,18.42,18.42,0,0,1-15,2.38A18.79,18.79,0,0,1,22.48,5.72,17.86,17.86,0,0,1,34.61,8.85c6.3,4.43,9,10.55,8.16,18.22a17.75,17.75,0,0,1-2.53,7.11,1.74,1.74,0,1,0,3,1.8,23.81,23.81,0,0,0,1.24-2.34c0-.2,0-.4,0-.6V15.2A22.34,22.34,0,0,0,28.39,2.56"/><path class="cls-2" d="M32.51,21l-14-5.55a2.37,2.37,0,0,0-2.27.29,2.34,2.34,0,0,0-1,2.07L16.32,33a2.37,2.37,0,0,0,1.37,2,2.45,2.45,0,0,0,1,.21,2.28,2.28,0,0,0,1.41-.47l13-9.68a2.33,2.33,0,0,0,.93-2.2A2.36,2.36,0,0,0,32.51,21M18.83,17.54h0m.92,13-.78-11,10.16,4Z"/><path class="cls-2" d="M18.83,17.54Z"/></g></g></svg>